<?xml version="1.0" encoding="utf-8"?>
<!-- Generator: Adobe Illustrator 22.1.0, SVG Export Plug-In . SVG Version: 6.00 Build 0)  -->
<svg version="1.1" id="Calque_1" xmlns="http://www.w3.org/2000/svg" xmlns:xlink="http://www.w3.org/1999/xlink" x="0px" y="0px"
	 viewBox="0 0 334.5 119.5" style="enable-background:new 0 0 334.5 119.5;" xml:space="preserve">
<style type="text/css">
	.st0{fill:#AF001E;}
	.st1{fill:#FFFFFF;}
</style>
<g>
	<g>
		<path d="M2.3,31.8h9.4c0.8,0,1.5,0.7,1.5,1.6v7.5c3.5-4.9,8.2-9.6,16.6-9.6c7.8,0,13.3,3.9,16.2,9.8c4.4-5.9,10.2-9.8,18.4-9.8
			c11.8,0,19.1,7.7,19.1,21.2v33.9c0,0.9-0.7,1.6-1.5,1.6h-9.4c-0.8,0-1.5-0.7-1.5-1.6v-30c0-8.8-4-13.6-11-13.6
			c-6.8,0-11.6,4.8-11.6,13.8v29.8c0,0.9-0.7,1.6-1.5,1.6h-9.4c-0.8,0-1.5-0.7-1.5-1.6V56.3c0-8.6-4.1-13.5-11-13.5
			s-11.6,5.3-11.6,13.9v29.7c0,0.9-0.7,1.6-1.5,1.6H2.3c-0.8,0-1.5-0.7-1.5-1.6V33.3C0.8,32.5,1.5,31.8,2.3,31.8z"/>
		<path d="M125.9,86.4v-5.3c-3.7,4.5-9.4,8-17.6,8C98,89.1,89,83.1,89,72v-0.2c0-12.3,9.4-18.2,22-18.2c6.6,0,10.8,0.9,15,2.3v-1.1
			c0-7.7-4.7-11.9-13.4-11.9c-5.5,0-9.7,1.1-14.1,2.9c-0.8,0.3-1.7-0.1-2-0.9l-2.4-7.3c-0.3-0.8,0.1-1.6,0.9-1.9
			c5.5-2.4,11.2-4,19.4-4c16.1,0,23.9,8.6,23.9,23.5v31.4c0,0.9-0.7,1.6-1.5,1.6h-9.3C126.6,88,125.9,87.3,125.9,86.4z M126.2,64.7
			c-3.2-1.3-7.6-2.2-12.5-2.2c-7.8,0-12.5,3.3-12.5,8.6v0.2c0,5.3,4.6,8.2,10.5,8.2c8.2,0,14.4-4.7,14.4-11.7L126.2,64.7z"/>
	</g>
	<g>
		<rect x="157" y="0.5" class="st0" width="177" height="118.7"/>
		<g>
			<path class="st1" d="M198.3,59l-0.9,3.7c-0.3,1.1-0.3,1.6-0.3,1.9c0,0.9,0.3,1.6,0.9,2.6l10.4,18.7c0.9,1.5,1.6,2.1,3.7,2.1h9.5
				c1.2,0,2.7-0.8,1.3-3l-12.8-21.2c4.3-2.7,9.1-6.6,9.1-15c0-10.9-6.1-17.1-19.6-17.1h-19.5c-1.7,0-2.3,0.6-2.3,2.4v51.5
				c0,1.8,0.5,2.4,2.3,2.4h8c1.8,0,2.3-0.6,2.3-2.4V42.2h8.3c5.2,0,7.8,1.9,7.8,6.8c0,4.5-2,5.9-4,6.7C200,56.8,199.1,55.7,198.3,59
				z"/>
			<path class="st1" d="M240.9,85.7c0,1.8,0.5,2.4,2.3,2.4h8c1.7,0,2.3-0.6,2.3-2.4V42.5h14.9c1.8,0,2.3-0.6,2.3-2.4v-6
				c0-1.7-0.5-2.4-2.3-2.4H226c-1.8,0-2.3,0.6-2.3,2.4v6c0,1.7,0.5,2.4,2.3,2.4h14.9V85.7z"/>
			<path class="st1" d="M275.6,79l-1.1,6.7c-0.2,1.3,0.4,1.8,1.6,2c2.5,0.3,8.9,0.8,15.1,0.8c13.9,0,24.1-4.5,24.1-17.5
				c0-7.6-3.3-13.3-14.9-16.3l-6.5-1.7c-4.4-1.1-6.4-2.5-6.4-5.8c0-4.5,4.2-5.4,8.2-5.4c5.4,0,10.9,0.4,13.1,0.6
				c2.3,0.2,2.9-0.1,3.2-2l1-6.6c0.2-1.3-0.4-1.8-1.6-2c-2.5-0.4-8.1-0.8-15.2-0.8c-14.4,0-21.4,6.3-21.4,16.3
				c0,9,4.9,14.3,13.4,16.5l6.5,1.7c5.3,1.4,7.6,3,7.6,6.3c0,4.9-3.3,5.8-11.4,5.8c-3.7,0-10.1-0.5-12.2-0.7
				C276.6,76.8,276,77.1,275.6,79z"/>
		</g>
	</g>
</g>
</svg>
